<?xml version="1.0" encoding="UTF-8" standalone="no"?>
<!-- Generator: Adobe Illustrator 19.0.0, SVG Export Plug-In . SVG Version: 6.00 Build 0)  -->

<svg
   version="1.1"
   id="layer"
   x="0px"
   y="0px"
   viewBox="-153 -46 218.60001 136.5"
   xml:space="preserve"
   width="218.60001"
   height="136.5"
   xmlns="http://www.w3.org/2000/svg"
   xmlns:svg="http://www.w3.org/2000/svg"><defs
   id="defs11" />
<style
   type="text/css"
   id="style2">
	.st0{fill:#479ABD;}
	.st1{fill:#1B1B1B;}
</style>
<path
   class="st0"
   d="m -108.6,68.1 h 17.9 c 2,0 3.7,-1.7 3.7,-3.8 V 48 c 0,-5.5 5.9,-11.6 11.2,-11.6 h 15.6 c 2.1,0 3.7,-1.7 3.7,-3.8 V 14.1 c 0,-2.1 -1.7,-3.8 -3.7,-3.8 h -17.9 c -2.1,0 -3.7,1.7 -3.7,3.8 v 16.3 c 0,5.5 -5.9,11.6 -11.2,11.6 h -15.6 c -2,0 -3.7,1.7 -3.7,3.8 v 18.6 c 0,2 1.7,3.7 3.7,3.7"
   id="path4" />
<path
   class="st1"
   d="m -105.2,76.3 c 0.1,0.1 0.3,0.1 0.4,0.1 z m -0.6,-73.5 c -3.4,0 -6.2,-2.9 -6.2,-6.5 0,-3.6 2.8,-6.4 6.2,-6.4 h 7.8 c 0.8,-1.9 1.8,-3.6 2.8,-5.3 1.7,-3 3.7,-5.8 5.9,-8.4 11.2,-13.5 28.1,-22.2 46.9,-22.2 h 3.8 c 4.4,0 8.7,0.5 12.9,1.4 4.2,0.9 8.2,2.3 12,4 17.9,8.1 31.3,24.7 35.1,44.6 h 0.9 v 0 c 11.9,0 22.7,4.8 30.5,12.6 7.9,7.8 12.8,18.7 12.8,30.6 v 0 0 0 C 65.6,59.2 60.7,70 52.8,77.9 45,85.7 34.2,90.5 22.3,90.5 v 0 H -95.9 v 0 c -4.3,0 -8.4,-0.6 -12.3,-1.8 -0.2,-0.1 -0.4,-0.1 -0.5,-0.2 l -1.4,-0.4 c -0.1,-0.1 -0.2,-0.1 -0.3,-0.1 -3.1,-1.1 -6,-2.5 -8.7,-4.3 h -0.2 l -0.3,-0.2 v 0 l -0.3,-0.2 c -0.1,0 -0.2,-0.1 -0.3,-0.2 -0.6,-0.4 -1.2,-0.8 -1.7,-1.2 -2.8,-2.1 -3.4,-6.1 -1.3,-9 2,-2.9 5.9,-3.5 8.7,-1.4 l 1.2,0.9 0.2,0.1 0.3,0.2 0.3,0.2 c 1.9,1.2 4,2.3 6.2,3.1 0.1,0 0.2,0 0.3,0.1 0.4,0.1 0.7,0.2 0.9,0.3 l 0.4,0.1 c 2.9,0.9 5.9,1.3 8.9,1.3 v 0 H 22.3 c 8.5,0 16.3,-3.4 21.9,-9 5.6,-5.5 9,-13.1 9,-21.4 v 0 C 53.2,39.1 49.8,31.6 44.2,26 38.6,20.4 30.8,17 22.3,17 H 16 c -3.2,0 -5.9,-2.5 -6.2,-5.8 -1.7,-17.8 -13,-32.8 -28.6,-39.9 -3,-1.4 -6.2,-2.5 -9.6,-3.2 -3.4,-0.7 -6.8,-1.1 -10.4,-1.1 v 0 h -3.8 c -15,0 -28.5,6.9 -37.4,17.6 -1.7,2.1 -3.3,4.3 -4.7,6.7 -1.4,2.4 -2.6,4.9 -3.6,7.4 v 0.1 c -0.9,2.4 -3.2,4 -5.8,4 h -11.7 m -33.5,65.3 h 17.9 c 2,0 3.7,-1.7 3.7,-3.8 V 48 c 0,-5.5 5.9,-11.6 11.2,-11.6 h 15.6 c 2,0 3.7,-1.7 3.7,-3.8 V 13.7 c 0,-2.1 -1.7,-3.8 -3.7,-3.8 h -15.6 c -5.3,0 -11.2,-6.2 -11.2,-11.7 V -18 c 0,-2.1 -1.6,-3.8 -3.7,-3.8 h -17.9 c -2,0 -3.7,1.7 -3.7,3.8 V 0.6 c 0,2.1 1.7,3.8 3.7,3.8 h 15.7 c 5.3,0 11.2,6.1 11.2,11.6 v 14.3 c 0,5.5 -5.9,11.6 -11.2,11.6 h -15.7 c -2,0 -3.7,1.7 -3.7,3.8 v 18.6 c 0,2.1 1.6,3.8 3.7,3.8 m 6.5,-36.7 V 18.9 c 0,-2.4 -1.9,-4.3 -4.1,-4.3 h -12 c -2.3,0 -4.1,1.9 -4.1,4.3 v 12.5 c 0,2.4 1.9,4.3 4.1,4.3 h 12 c 2.3,0 4.1,-1.9 4.1,-4.3 m 94.7,20.4 V 41 c 0,-2.1 -1.6,-3.7 -3.6,-3.7 h -10.5 c -2,0 -3.6,1.7 -3.6,3.7 v 10.8 c 0,2 1.6,3.7 3.6,3.7 h 10.5 c 2,0 3.6,-1.7 3.6,-3.7 M -50,0.4 v -10 c 0,-1.9 -1.5,-3.4 -3.3,-3.4 h -9.6 c -1.8,0 -3.3,1.6 -3.3,3.5 v 10 c 0,1.9 1.5,3.4 3.3,3.4 h 9.6 c 1.8,0 3.3,-1.5 3.3,-3.5 m 21.5,28.8 V 19.1 c 0,-1.9 -1.5,-3.5 -3.4,-3.5 h -9.8 c -1.8,0 -3.3,1.6 -3.3,3.5 v 10.1 c 0,1.9 1.5,3.5 3.3,3.5 h 9.8 c 1.9,0 3.4,-1.6 3.4,-3.5 m 15.3,6 v -6.6 c 0,-1.3 -1,-2.3 -2.2,-2.3 h -6.4 c -1.2,0 -2.2,1 -2.2,2.3 v 6.6 c 0,1.2 1,2.3 2.2,2.3 h 6.4 c 1.2,0 2.1,-1.1 2.2,-2.3"
   id="path6" />
</svg>
